<svg
  xmlns="http://www.w3.org/2000/svg"
  xmlns:xlink="http://www.w3.org/1999/xlink"
  font-family="Arial,Helvetica,sans-serif" width="500" height="166">
<text font-family="Arial,Helvetica,sans-serif" font-size="12px" x="16" y="26">2021</text>
<text font-family="Arial,Helvetica,sans-serif" font-size="10px" x="52" y="46">01</text>
<text font-family="Arial,Helvetica,sans-serif" font-size="12px" x="52" y="26">April</text>
<text font-family="Arial,Helvetica,sans-serif" font-size="10px" x="67" y="46">02</text>
<rect font-family="Arial,Helvetica,sans-serif" fill="#f3f3f3" x="80" y="34" width="30" height="78"/>
<text font-family="Arial,Helvetica,sans-serif" font-size="12px" x="86" y="52"></text>
<text font-family="Arial,Helvetica,sans-serif" font-size="10px" x="82" y="46">03</text>
<text font-family="Arial,Helvetica,sans-serif" font-size="10px" x="97" y="46">04</text>
<text font-family="Arial,Helvetica,sans-serif" font-size="10px" x="112" y="46">05</text>
<text font-family="Arial,Helvetica,sans-serif" font-size="10px" x="127" y="46">06</text>
<text font-family="Arial,Helvetica,sans-serif" font-size="10px" x="142" y="46">07</text>
<text font-family="Arial,Helvetica,sans-serif" font-size="10px" x="157" y="46">08</text>
<text font-family="Arial,Helvetica,sans-serif" font-size="10px" x="172" y="46">09</text>
<rect font-family="Arial,Helvetica,sans-serif" fill="#f3f3f3" x="185" y="34" width="30" height="78"/>
<text font-family="Arial,Helvetica,sans-serif" font-size="12px" x="191" y="52"></text>
<text font-family="Arial,Helvetica,sans-serif" font-size="10px" x="187" y="46">10</text>
<text font-family="Arial,Helvetica,sans-serif" font-size="10px" x="202" y="46">11</text>
<text font-family="Arial,Helvetica,sans-serif" font-size="10px" x="217" y="46">12</text>
<text font-family="Arial,Helvetica,sans-serif" font-size="10px" x="232" y="46">13</text>
<text font-family="Arial,Helvetica,sans-serif" font-size="10px" x="247" y="46">14</text>
<line stroke="black" x1="247" y1="30" x2="257" y2="30"/>
<text font-family="Arial,Helvetica,sans-serif" font-size="10px" x="262" y="46">15</text>
<text font-family="Arial,Helvetica,sans-serif" font-size="10px" x="277" y="46">16</text>
<rect font-family="Arial,Helvetica,sans-serif" fill="#f3f3f3" x="290" y="34" width="30" height="78"/>
<text font-family="Arial,Helvetica,sans-serif" font-size="12px" x="296" y="52"></text>
<text font-family="Arial,Helvetica,sans-serif" font-size="10px" x="292" y="46">17</text>
<text font-family="Arial,Helvetica,sans-serif" font-size="10px" x="307" y="46">18</text>
<text font-family="Arial,Helvetica,sans-serif" font-size="10px" x="322" y="46">19</text>
<text font-family="Arial,Helvetica,sans-serif" font-size="10px" x="337" y="46">20</text>
<text font-family="Arial,Helvetica,sans-serif" font-size="10px" x="352" y="46">21</text>
<text font-family="Arial,Helvetica,sans-serif" font-size="10px" x="367" y="46">22</text>
<text font-family="Arial,Helvetica,sans-serif" font-size="10px" x="382" y="46">23</text>
<rect font-family="Arial,Helvetica,sans-serif" fill="#f3f3f3" x="395" y="34" width="30" height="78"/>
<text font-family="Arial,Helvetica,sans-serif" font-size="12px" x="401" y="52"></text>
<text font-family="Arial,Helvetica,sans-serif" font-size="10px" x="397" y="46">24</text>
<text font-family="Arial,Helvetica,sans-serif" font-size="10px" x="412" y="46">25</text>
<text font-family="Arial,Helvetica,sans-serif" font-size="10px" x="427" y="46">26</text>
<text font-family="Arial,Helvetica,sans-serif" font-size="10px" x="442" y="46">27</text>
<text font-family="Arial,Helvetica,sans-serif" font-size="10px" x="457" y="46">28</text>
<text font-family="Arial,Helvetica,sans-serif" font-size="10px" x="472" y="46">29</text>
<text font-family="Arial,Helvetica,sans-serif" font-size="10px" x="487" y="46">30</text>
<text font-family="Arial,Helvetica,sans-serif" font-size="12px" x="16" y="69">ghi</text>
<rect stroke="#d3d3d3" fill="#ccff99" rx="5" ry="5" x="232" y="58" width="116" height="12"/>
<text font-family="Arial,Helvetica,sans-serif" font-size="12px" x="238" y="76"></text>
<text font-family="Arial,Helvetica,sans-serif" font-size="12px" x="16" y="85">abc</text>
<rect stroke="#d3d3d3" fill="#ccff99" rx="5" ry="5" x="52" y="74" width="146" height="12"/>
<text font-family="Arial,Helvetica,sans-serif" font-size="12px" x="58" y="92"></text>
<text font-family="Arial,Helvetica,sans-serif" font-size="12px" x="16" y="101">def</text>
<rect stroke="#d3d3d3" fill="#ccff99" rx="5" ry="5" x="202" y="90" width="71" height="12"/>
<text font-family="Arial,Helvetica,sans-serif" font-size="12px" x="208" y="108"></text>
<text font-family="Arial,Helvetica,sans-serif" font-size="12px" x="203" y="159">Project Schedule</text></svg>