<?xml version="1.0" encoding="UTF-8" standalone="no"?><svg xmlns="http://www.w3.org/2000/svg" xmlns:xlink="http://www.w3.org/1999/xlink" contentScriptType="application/ecmascript" contentStyleType="text/css" height="312px" preserveAspectRatio="none" style="width:249px;height:312px;" version="1.1" viewBox="0 0 249 312" width="249px" zoomAndPan="magnify"><defs><filter height="300%" id="f5e8e168erauv" width="300%" x="-1" y="-1"><feGaussianBlur result="blurOut" stdDeviation="2.0"/><feColorMatrix in="blurOut" result="blurOut2" type="matrix" values="0 0 0 0 0 0 0 0 0 0 0 0 0 0 0 0 0 0 .4 0"/><feOffset dx="4.0" dy="4.0" in="blurOut2" result="blurOut3"/><feBlend in="SourceGraphic" in2="blurOut3" mode="normal"/></filter></defs><g><rect fill="#FFFFFF" filter="url(#f5e8e168erauv)" height="96.3516" style="stroke:#A80036;stroke-width:1.0;" width="10" x="118.5" y="121.9609"/><rect fill="#FFFFFF" filter="url(#f5e8e168erauv)" height="28" style="stroke:#A80036;stroke-width:1.0;" width="10" x="123.5" y="160.3125"/><line style="stroke:#A80036;stroke-width:1.0;stroke-dasharray:5.0,5.0;" x1="22" x2="22" y1="89.6094" y2="227.3125"/><line style="stroke:#A80036;stroke-width:1.0;stroke-dasharray:5.0,5.0;" x1="123.5" x2="123.5" y1="89.6094" y2="227.3125"/><text fill="#000000" font-family="sans-serif" font-size="14" lengthAdjust="spacing" textLength="29" x="5" y="86.5332">User</text><ellipse cx="22.5" cy="15" fill="#FEFECE" filter="url(#f5e8e168erauv)" rx="8" ry="8" style="stroke:#A80036;stroke-width:2.0;"/><path d="M22.5,23 L22.5,50 M9.5,31 L35.5,31 M22.5,50 L9.5,65 M22.5,50 L35.5,65 " fill="none" filter="url(#f5e8e168erauv)" style="stroke:#A80036;stroke-width:2.0;"/><text fill="#000000" font-family="sans-serif" font-size="14" lengthAdjust="spacing" textLength="29" x="5" y="240.8457">User</text><ellipse cx="22.5" cy="253.9219" fill="#FEFECE" filter="url(#f5e8e168erauv)" rx="8" ry="8" style="stroke:#A80036;stroke-width:2.0;"/><path d="M22.5,261.9219 L22.5,288.9219 M9.5,269.9219 L35.5,269.9219 M22.5,288.9219 L9.5,303.9219 M22.5,288.9219 L35.5,303.9219 " fill="none" filter="url(#f5e8e168erauv)" style="stroke:#A80036;stroke-width:2.0;"/><rect fill="#FEFECE" filter="url(#f5e8e168erauv)" height="31.6094" style="stroke:#A80036;stroke-width:1.5;" width="78" x="82.5" y="53"/><text fill="#000000" font-family="sans-serif" font-size="14" lengthAdjust="spacing" textLength="64" x="89.5" y="74.5332">Scheduler</text><rect fill="#FEFECE" filter="url(#f5e8e168erauv)" height="31.6094" style="stroke:#A80036;stroke-width:1.5;" width="78" x="82.5" y="226.3125"/><text fill="#000000" font-family="sans-serif" font-size="14" lengthAdjust="spacing" textLength="64" x="89.5" y="247.8457">Scheduler</text><rect fill="#FFFFFF" filter="url(#f5e8e168erauv)" height="96.3516" style="stroke:#A80036;stroke-width:1.0;" width="10" x="118.5" y="121.9609"/><rect fill="#FFFFFF" filter="url(#f5e8e168erauv)" height="28" style="stroke:#A80036;stroke-width:1.0;" width="10" x="123.5" y="160.3125"/><polygon fill="#A80036" points="106.5,117.9609,116.5,121.9609,106.5,125.9609,110.5,121.9609" style="stroke:#A80036;stroke-width:1.0;"/><line style="stroke:#A80036;stroke-width:1.0;" x1="22.5" x2="112.5" y1="121.9609" y2="121.9609"/><text fill="#000000" font-family="sans-serif" font-size="13" lengthAdjust="spacing" textLength="77" x="29.5" y="117.1045">setPullPeriod</text><line style="stroke:#A80036;stroke-width:1.0;" x1="133.5" x2="175.5" y1="152.3125" y2="152.3125"/><line style="stroke:#A80036;stroke-width:1.0;" x1="175.5" x2="175.5" y1="152.3125" y2="165.3125"/><line style="stroke:#A80036;stroke-width:1.0;" x1="134.5" x2="175.5" y1="165.3125" y2="165.3125"/><polygon fill="#A80036" points="144.5,161.3125,134.5,165.3125,144.5,169.3125,140.5,165.3125" style="stroke:#A80036;stroke-width:1.0;"/><text fill="#000000" font-family="sans-serif" font-size="13" lengthAdjust="spacing" textLength="102" x="140.5" y="147.4561">activateScheduler</text><polygon fill="#A80036" points="33.5,205.3125,23.5,209.3125,33.5,213.3125,29.5,209.3125" style="stroke:#A80036;stroke-width:1.0;"/><line style="stroke:#A80036;stroke-width:1.0;stroke-dasharray:2.0,2.0;" x1="27.5" x2="117.5" y1="209.3125" y2="209.3125"/><!--MD5=[976ecf791f820a02981a25e15025f520]
@startuml sequence_diagram6
actor User as user
participant "Scheduler" as a1

user -> a1: setPullPeriod
activate a1

a1 -> a1: activateScheduler
activate a1
deactivate a1

a1 - -> user
@enduml

PlantUML version 1.2021.00(Sun Jan 10 17:25:05 ICT 2021)
(GPL source distribution)
Java Runtime: Java(TM) SE Runtime Environment
JVM: Java HotSpot(TM) 64-Bit Server VM
Default Encoding: Cp1252
Language: en
Country: ID
--></g></svg>