<?xml version="1.0" encoding="UTF-8" standalone="no"?><svg xmlns="http://www.w3.org/2000/svg" xmlns:xlink="http://www.w3.org/1999/xlink" contentScriptType="application/ecmascript" contentStyleType="text/css" height="510px" preserveAspectRatio="none" style="width:528px;height:510px;" version="1.1" viewBox="0 0 528 510" width="528px" zoomAndPan="magnify"><defs><filter height="300%" id="f4y37rfvwaoo4" width="300%" x="-1" y="-1"><feGaussianBlur result="blurOut" stdDeviation="2.0"/><feColorMatrix in="blurOut" result="blurOut2" type="matrix" values="0 0 0 0 0 0 0 0 0 0 0 0 0 0 0 0 0 0 .4 0"/><feOffset dx="4.0" dy="4.0" in="blurOut2" result="blurOut3"/><feBlend in="SourceGraphic" in2="blurOut3" mode="normal"/></filter></defs><g><rect fill="#FFFFFF" filter="url(#f4y37rfvwaoo4)" height="293.2969" style="stroke:#383838;stroke-width:1.0;" width="10" x="209.5" y="121.9609"/><rect fill="#FFFFFF" filter="url(#f4y37rfvwaoo4)" height="149.4063" style="stroke:#383838;stroke-width:1.0;" width="10" x="214.5" y="160.3125"/><rect fill="#FFFFFF" filter="url(#f4y37rfvwaoo4)" height="58.3516" style="stroke:#383838;stroke-width:1.0;" width="10" x="337.5" y="195.6641"/><rect fill="#FFFFFF" filter="url(#f4y37rfvwaoo4)" height="14" style="stroke:#383838;stroke-width:1.0;" width="10" x="465.5" y="226.0156"/><rect fill="#FFFFFF" filter="url(#f4y37rfvwaoo4)" height="14" style="stroke:#383838;stroke-width:1.0;" width="10" x="465.5" y="355.9063"/><rect fill="#FFFFFF" filter="url(#f4y37rfvwaoo4)" height="139.2422" style="stroke:#000000;stroke-width:2.0;" width="504" x="10" y="269.0156"/><rect fill="#FFFFFF" height="90.5391" style="stroke:none;stroke-width:1.0;" width="504" x="10" y="317.7188"/><line style="stroke:#383838;stroke-width:1.0;stroke-dasharray:5.0,5.0;" x1="37" x2="37" y1="89.6094" y2="425.2578"/><line style="stroke:#383838;stroke-width:1.0;stroke-dasharray:5.0,5.0;" x1="214" x2="214" y1="89.6094" y2="425.2578"/><line style="stroke:#383838;stroke-width:1.0;stroke-dasharray:5.0,5.0;" x1="342" x2="342" y1="89.6094" y2="425.2578"/><line style="stroke:#383838;stroke-width:1.0;stroke-dasharray:5.0,5.0;" x1="470" x2="470" y1="89.6094" y2="425.2578"/><text fill="#000000" font-family="sans-serif" font-size="14" lengthAdjust="spacing" textLength="29" x="20" y="86.5332">User</text><ellipse cx="37.5" cy="15" fill="#F8F8F8" filter="url(#f4y37rfvwaoo4)" rx="8" ry="8" style="stroke:#383838;stroke-width:2.0;"/><path d="M37.5,23 L37.5,50 M24.5,31 L50.5,31 M37.5,50 L24.5,65 M37.5,50 L50.5,65 " fill="none" filter="url(#f4y37rfvwaoo4)" style="stroke:#383838;stroke-width:2.0;"/><text fill="#000000" font-family="sans-serif" font-size="14" lengthAdjust="spacing" textLength="29" x="20" y="438.791">User</text><ellipse cx="37.5" cy="451.8672" fill="#F8F8F8" filter="url(#f4y37rfvwaoo4)" rx="8" ry="8" style="stroke:#383838;stroke-width:2.0;"/><path d="M37.5,459.8672 L37.5,486.8672 M24.5,467.8672 L50.5,467.8672 M37.5,486.8672 L24.5,501.8672 M37.5,486.8672 L50.5,501.8672 " fill="none" filter="url(#f4y37rfvwaoo4)" style="stroke:#383838;stroke-width:2.0;"/><rect fill="#F8F8F8" filter="url(#f4y37rfvwaoo4)" height="31.6094" style="stroke:#383838;stroke-width:1.5;" width="107" x="159" y="53"/><text fill="#000000" font-family="sans-serif" font-size="14" lengthAdjust="spacing" textLength="93" x="166" y="74.5332">TaskController</text><rect fill="#F8F8F8" filter="url(#f4y37rfvwaoo4)" height="31.6094" style="stroke:#383838;stroke-width:1.5;" width="107" x="159" y="424.2578"/><text fill="#000000" font-family="sans-serif" font-size="14" lengthAdjust="spacing" textLength="93" x="166" y="445.791">TaskController</text><rect fill="#F8F8F8" filter="url(#f4y37rfvwaoo4)" height="31.6094" style="stroke:#383838;stroke-width:1.5;" width="121" x="280" y="53"/><text fill="#000000" font-family="sans-serif" font-size="14" lengthAdjust="spacing" textLength="107" x="287" y="74.5332">BranchController</text><rect fill="#F8F8F8" filter="url(#f4y37rfvwaoo4)" height="31.6094" style="stroke:#383838;stroke-width:1.5;" width="121" x="280" y="424.2578"/><text fill="#000000" font-family="sans-serif" font-size="14" lengthAdjust="spacing" textLength="107" x="287" y="445.791">BranchController</text><text fill="#000000" font-family="sans-serif" font-size="14" lengthAdjust="spacing" textLength="61" x="437" y="86.5332">Database</text><path d="M452.5,36 C452.5,26 470.5,26 470.5,26 C470.5,26 488.5,26 488.5,36 L488.5,62 C488.5,72 470.5,72 470.5,72 C470.5,72 452.5,72 452.5,62 L452.5,36 " fill="#F8F8F8" filter="url(#f4y37rfvwaoo4)" style="stroke:#000000;stroke-width:1.5;"/><path d="M452.5,36 C452.5,46 470.5,46 470.5,46 C470.5,46 488.5,46 488.5,36 " fill="none" style="stroke:#000000;stroke-width:1.5;"/><text fill="#000000" font-family="sans-serif" font-size="14" lengthAdjust="spacing" textLength="61" x="437" y="438.791">Database</text><path d="M452.5,451.8672 C452.5,441.8672 470.5,441.8672 470.5,441.8672 C470.5,441.8672 488.5,441.8672 488.5,451.8672 L488.5,477.8672 C488.5,487.8672 470.5,487.8672 470.5,487.8672 C470.5,487.8672 452.5,487.8672 452.5,477.8672 L452.5,451.8672 " fill="#F8F8F8" filter="url(#f4y37rfvwaoo4)" style="stroke:#000000;stroke-width:1.5;"/><path d="M452.5,451.8672 C452.5,461.8672 470.5,461.8672 470.5,461.8672 C470.5,461.8672 488.5,461.8672 488.5,451.8672 " fill="none" style="stroke:#000000;stroke-width:1.5;"/><rect fill="#FFFFFF" filter="url(#f4y37rfvwaoo4)" height="293.2969" style="stroke:#383838;stroke-width:1.0;" width="10" x="209.5" y="121.9609"/><rect fill="#FFFFFF" filter="url(#f4y37rfvwaoo4)" height="149.4063" style="stroke:#383838;stroke-width:1.0;" width="10" x="214.5" y="160.3125"/><rect fill="#FFFFFF" filter="url(#f4y37rfvwaoo4)" height="58.3516" style="stroke:#383838;stroke-width:1.0;" width="10" x="337.5" y="195.6641"/><rect fill="#FFFFFF" filter="url(#f4y37rfvwaoo4)" height="14" style="stroke:#383838;stroke-width:1.0;" width="10" x="465.5" y="226.0156"/><rect fill="#FFFFFF" filter="url(#f4y37rfvwaoo4)" height="14" style="stroke:#383838;stroke-width:1.0;" width="10" x="465.5" y="355.9063"/><polygon fill="#383838" points="197.5,117.9609,207.5,121.9609,197.5,125.9609,201.5,121.9609" style="stroke:#383838;stroke-width:1.0;"/><line style="stroke:#383838;stroke-width:1.0;" x1="37.5" x2="203.5" y1="121.9609" y2="121.9609"/><text fill="#000000" font-family="sans-serif" font-size="13" lengthAdjust="spacing" textLength="94" x="44.5" y="117.1045">setProjectTasks</text><line style="stroke:#383838;stroke-width:1.0;" x1="219.5" x2="266.5" y1="147.3125" y2="147.3125"/><line style="stroke:#383838;stroke-width:1.0;" x1="266.5" x2="266.5" y1="147.3125" y2="160.3125"/><line style="stroke:#383838;stroke-width:1.0;" x1="225.5" x2="266.5" y1="160.3125" y2="160.3125"/><polygon fill="#383838" points="235.5,156.3125,225.5,160.3125,235.5,164.3125,231.5,160.3125" style="stroke:#383838;stroke-width:1.0;"/><text fill="#000000" font-family="sans-serif" font-size="13" lengthAdjust="spacing" textLength="70" x="231.5" y="142.4561">verifyBranch</text><polygon fill="#383838" points="325.5,191.6641,335.5,195.6641,325.5,199.6641,329.5,195.6641" style="stroke:#383838;stroke-width:1.0;"/><line style="stroke:#383838;stroke-width:1.0;" x1="224.5" x2="331.5" y1="195.6641" y2="195.6641"/><text fill="#000000" font-family="sans-serif" font-size="13" lengthAdjust="spacing" textLength="87" x="231.5" y="190.8076">setTaskBranch</text><polygon fill="#383838" points="453.5,222.0156,463.5,226.0156,453.5,230.0156,457.5,226.0156" style="stroke:#383838;stroke-width:1.0;"/><line style="stroke:#383838;stroke-width:1.0;" x1="347.5" x2="459.5" y1="226.0156" y2="226.0156"/><text fill="#000000" font-family="sans-serif" font-size="13" lengthAdjust="spacing" textLength="99" x="354.5" y="221.1592">getDefaultBranch</text><polygon fill="#383838" points="358.5,236.0156,348.5,240.0156,358.5,244.0156,354.5,240.0156" style="stroke:#383838;stroke-width:1.0;"/><line style="stroke:#383838;stroke-width:1.0;stroke-dasharray:2.0,2.0;" x1="352.5" x2="469.5" y1="240.0156" y2="240.0156"/><polygon fill="#383838" points="235.5,250.0156,225.5,254.0156,235.5,258.0156,231.5,254.0156" style="stroke:#383838;stroke-width:1.0;"/><line style="stroke:#383838;stroke-width:1.0;stroke-dasharray:2.0,2.0;" x1="229.5" x2="341.5" y1="254.0156" y2="254.0156"/><path d="M10,269.0156 L71,269.0156 L71,277.0156 L61,287.0156 L10,287.0156 L10,269.0156 " fill="#EEEEEE" style="stroke:#000000;stroke-width:1.0;"/><rect fill="none" height="139.2422" style="stroke:#000000;stroke-width:2.0;" width="504" x="10" y="269.0156"/><text fill="#000000" font-family="sans-serif" font-size="13" font-weight="bold" lengthAdjust="spacing" textLength="16" x="25" y="283.5107">alt</text><text fill="#000000" font-family="sans-serif" font-size="11" font-weight="bold" lengthAdjust="spacing" textLength="84" x="86" y="282.4346">[invalid branch]</text><polygon fill="#383838" points="48.5,305.7188,38.5,309.7188,48.5,313.7188,44.5,309.7188" style="stroke:#383838;stroke-width:1.0;"/><line style="stroke:#383838;stroke-width:1.0;stroke-dasharray:2.0,2.0;" x1="42.5" x2="208.5" y1="309.7188" y2="309.7188"/><text fill="#000000" font-family="sans-serif" font-size="13" lengthAdjust="spacing" textLength="78" x="54.5" y="304.8623">Invalid branch</text><line style="stroke:#000000;stroke-width:1.0;stroke-dasharray:2.0,2.0;" x1="10" x2="514" y1="318.7188" y2="318.7188"/><text fill="#000000" font-family="sans-serif" font-size="11" font-weight="bold" lengthAdjust="spacing" textLength="74" x="15" y="330.1377">[valid branch]</text><polygon fill="#383838" points="453.5,351.9063,463.5,355.9063,453.5,359.9063,457.5,355.9063" style="stroke:#383838;stroke-width:1.0;"/><line style="stroke:#383838;stroke-width:1.0;" x1="219.5" x2="459.5" y1="355.9063" y2="355.9063"/><text fill="#000000" font-family="sans-serif" font-size="13" lengthAdjust="spacing" textLength="54" x="226.5" y="351.0498">saveTask</text><polygon fill="#383838" points="230.5,365.9063,220.5,369.9063,230.5,373.9063,226.5,369.9063" style="stroke:#383838;stroke-width:1.0;"/><line style="stroke:#383838;stroke-width:1.0;stroke-dasharray:2.0,2.0;" x1="224.5" x2="469.5" y1="369.9063" y2="369.9063"/><polygon fill="#383838" points="48.5,396.2578,38.5,400.2578,48.5,404.2578,44.5,400.2578" style="stroke:#383838;stroke-width:1.0;"/><line style="stroke:#383838;stroke-width:1.0;stroke-dasharray:2.0,2.0;" x1="42.5" x2="208.5" y1="400.2578" y2="400.2578"/><text fill="#000000" font-family="sans-serif" font-size="13" lengthAdjust="spacing" textLength="148" x="54.5" y="395.4014">Tasks saved successfully</text><!--MD5=[1a59cc9a3d944a6979dc5730af57eaad]
@startuml sequence_diagram3
skinparam monochrome true
actor User as user
participant "TaskController" as a1
participant "BranchController" as a2
database "Database" as db

user -> a1: setProjectTasks
activate a1

a1 -> a1: verifyBranch
activate a1
a1 -> a2: setTaskBranch
activate a2
a2 -> db: getDefaultBranch
activate db
db - -> a2
deactivate db
a2 - -> a1
deactivate a2

alt invalid branch
    a1 - -> user: Invalid branch
    deactivate a1
else valid branch
    a1 -> db: saveTask
    activate db
    db - -> a1
    deactivate db
    a1 - -> user: Tasks saved successfully
end
deactivate a1

@enduml

PlantUML version 1.2021.00(Sun Jan 10 17:25:05 ICT 2021)
(GPL source distribution)
Java Runtime: Java(TM) SE Runtime Environment
JVM: Java HotSpot(TM) 64-Bit Server VM
Default Encoding: Cp1252
Language: en
Country: ID
--></g></svg>