<?xml version="1.0" encoding="UTF-8" standalone="no"?><svg xmlns="http://www.w3.org/2000/svg" xmlns:xlink="http://www.w3.org/1999/xlink" contentScriptType="application/ecmascript" contentStyleType="text/css" height="314px" preserveAspectRatio="none" style="width:499px;height:314px;" version="1.1" viewBox="0 0 499 314" width="499px" zoomAndPan="magnify"><defs><filter height="300%" id="f1wjgrgmh3vzxz" width="300%" x="-1" y="-1"><feGaussianBlur result="blurOut" stdDeviation="2.0"/><feColorMatrix in="blurOut" result="blurOut2" type="matrix" values="0 0 0 0 0 0 0 0 0 0 0 0 0 0 0 0 0 0 .4 0"/><feOffset dx="4.0" dy="4.0" in="blurOut2" result="blurOut3"/><feBlend in="SourceGraphic" in2="blurOut3" mode="normal"/></filter></defs><g><rect fill="#FFFFFF" filter="url(#f1wjgrgmh3vzxz)" height="88.7031" style="stroke:#383838;stroke-width:1.0;" width="10" x="195.5" y="121.9609"/><rect fill="#FFFFFF" filter="url(#f1wjgrgmh3vzxz)" height="58.3516" style="stroke:#383838;stroke-width:1.0;" width="10" x="323.5" y="152.3125"/><rect fill="#FFFFFF" filter="url(#f1wjgrgmh3vzxz)" height="14" style="stroke:#383838;stroke-width:1.0;" width="10" x="459.5" y="182.6641"/><line style="stroke:#383838;stroke-width:1.0;stroke-dasharray:5.0,5.0;" x1="89" x2="89" y1="89.6094" y2="228.6641"/><line style="stroke:#383838;stroke-width:1.0;stroke-dasharray:5.0,5.0;" x1="200" x2="200" y1="89.6094" y2="228.6641"/><line style="stroke:#383838;stroke-width:1.0;stroke-dasharray:5.0,5.0;" x1="328" x2="328" y1="89.6094" y2="228.6641"/><line style="stroke:#383838;stroke-width:1.0;stroke-dasharray:5.0,5.0;" x1="464" x2="464" y1="89.6094" y2="228.6641"/><rect fill="#F8F8F8" filter="url(#f1wjgrgmh3vzxz)" height="31.6094" style="stroke:#383838;stroke-width:1.5;" width="164" x="5" y="53"/><text fill="#000000" font-family="sans-serif" font-size="14" lengthAdjust="spacing" textLength="150" x="12" y="74.5332">GitOperationsController</text><rect fill="#F8F8F8" filter="url(#f1wjgrgmh3vzxz)" height="31.6094" style="stroke:#383838;stroke-width:1.5;" width="164" x="5" y="227.6641"/><text fill="#000000" font-family="sans-serif" font-size="14" lengthAdjust="spacing" textLength="150" x="12" y="249.1973">GitOperationsController</text><text fill="#000000" font-family="sans-serif" font-size="14" lengthAdjust="spacing" textLength="29" x="183" y="86.5332">User</text><ellipse cx="200.5" cy="15" fill="#F8F8F8" filter="url(#f1wjgrgmh3vzxz)" rx="8" ry="8" style="stroke:#383838;stroke-width:2.0;"/><path d="M200.5,23 L200.5,50 M187.5,31 L213.5,31 M200.5,50 L187.5,65 M200.5,50 L213.5,65 " fill="none" filter="url(#f1wjgrgmh3vzxz)" style="stroke:#383838;stroke-width:2.0;"/><text fill="#000000" font-family="sans-serif" font-size="14" lengthAdjust="spacing" textLength="29" x="183" y="242.1973">User</text><ellipse cx="200.5" cy="255.2734" fill="#F8F8F8" filter="url(#f1wjgrgmh3vzxz)" rx="8" ry="8" style="stroke:#383838;stroke-width:2.0;"/><path d="M200.5,263.2734 L200.5,290.2734 M187.5,271.2734 L213.5,271.2734 M200.5,290.2734 L187.5,305.2734 M200.5,290.2734 L213.5,305.2734 " fill="none" filter="url(#f1wjgrgmh3vzxz)" style="stroke:#383838;stroke-width:2.0;"/><rect fill="#F8F8F8" filter="url(#f1wjgrgmh3vzxz)" height="31.6094" style="stroke:#383838;stroke-width:1.5;" width="121" x="266" y="53"/><text fill="#000000" font-family="sans-serif" font-size="14" lengthAdjust="spacing" textLength="107" x="273" y="74.5332">BranchController</text><rect fill="#F8F8F8" filter="url(#f1wjgrgmh3vzxz)" height="31.6094" style="stroke:#383838;stroke-width:1.5;" width="121" x="266" y="227.6641"/><text fill="#000000" font-family="sans-serif" font-size="14" lengthAdjust="spacing" textLength="107" x="273" y="249.1973">BranchController</text><text fill="#000000" font-family="sans-serif" font-size="14" lengthAdjust="spacing" textLength="61" x="431" y="86.5332">Database</text><path d="M446.5,36 C446.5,26 464.5,26 464.5,26 C464.5,26 482.5,26 482.5,36 L482.5,62 C482.5,72 464.5,72 464.5,72 C464.5,72 446.5,72 446.5,62 L446.5,36 " fill="#F8F8F8" filter="url(#f1wjgrgmh3vzxz)" style="stroke:#000000;stroke-width:1.5;"/><path d="M446.5,36 C446.5,46 464.5,46 464.5,46 C464.5,46 482.5,46 482.5,36 " fill="none" style="stroke:#000000;stroke-width:1.5;"/><text fill="#000000" font-family="sans-serif" font-size="14" lengthAdjust="spacing" textLength="61" x="431" y="242.1973">Database</text><path d="M446.5,255.2734 C446.5,245.2734 464.5,245.2734 464.5,245.2734 C464.5,245.2734 482.5,245.2734 482.5,255.2734 L482.5,281.2734 C482.5,291.2734 464.5,291.2734 464.5,291.2734 C464.5,291.2734 446.5,291.2734 446.5,281.2734 L446.5,255.2734 " fill="#F8F8F8" filter="url(#f1wjgrgmh3vzxz)" style="stroke:#000000;stroke-width:1.5;"/><path d="M446.5,255.2734 C446.5,265.2734 464.5,265.2734 464.5,265.2734 C464.5,265.2734 482.5,265.2734 482.5,255.2734 " fill="none" style="stroke:#000000;stroke-width:1.5;"/><rect fill="#FFFFFF" filter="url(#f1wjgrgmh3vzxz)" height="88.7031" style="stroke:#383838;stroke-width:1.0;" width="10" x="195.5" y="121.9609"/><rect fill="#FFFFFF" filter="url(#f1wjgrgmh3vzxz)" height="58.3516" style="stroke:#383838;stroke-width:1.0;" width="10" x="323.5" y="152.3125"/><rect fill="#FFFFFF" filter="url(#f1wjgrgmh3vzxz)" height="14" style="stroke:#383838;stroke-width:1.0;" width="10" x="459.5" y="182.6641"/><polygon fill="#383838" points="183.5,117.9609,193.5,121.9609,183.5,125.9609,187.5,121.9609" style="stroke:#383838;stroke-width:1.0;"/><line style="stroke:#383838;stroke-width:1.0;" x1="89" x2="189.5" y1="121.9609" y2="121.9609"/><text fill="#000000" font-family="sans-serif" font-size="13" lengthAdjust="spacing" textLength="60" x="96" y="117.1045">branchList</text><polygon fill="#383838" points="311.5,148.3125,321.5,152.3125,311.5,156.3125,315.5,152.3125" style="stroke:#383838;stroke-width:1.0;"/><line style="stroke:#383838;stroke-width:1.0;" x1="205.5" x2="317.5" y1="152.3125" y2="152.3125"/><text fill="#000000" font-family="sans-serif" font-size="13" lengthAdjust="spacing" textLength="99" x="212.5" y="147.4561">setDefaultBranch</text><polygon fill="#383838" points="447.5,178.6641,457.5,182.6641,447.5,186.6641,451.5,182.6641" style="stroke:#383838;stroke-width:1.0;"/><line style="stroke:#383838;stroke-width:1.0;" x1="333.5" x2="453.5" y1="182.6641" y2="182.6641"/><text fill="#000000" font-family="sans-serif" font-size="13" lengthAdjust="spacing" textLength="107" x="340.5" y="177.8076">saveDefaultBranch</text><polygon fill="#383838" points="344.5,192.6641,334.5,196.6641,344.5,200.6641,340.5,196.6641" style="stroke:#383838;stroke-width:1.0;"/><line style="stroke:#383838;stroke-width:1.0;stroke-dasharray:2.0,2.0;" x1="338.5" x2="463.5" y1="196.6641" y2="196.6641"/><polygon fill="#383838" points="211.5,206.6641,201.5,210.6641,211.5,214.6641,207.5,210.6641" style="stroke:#383838;stroke-width:1.0;"/><line style="stroke:#383838;stroke-width:1.0;stroke-dasharray:2.0,2.0;" x1="205.5" x2="327.5" y1="210.6641" y2="210.6641"/><!--MD5=[08903bbe24b3866e66f8c96ceec390b4]
@startuml sequence_diagram2
skinparam monochrome true
participant "GitOperationsController" as a1
actor User as user
participant "BranchController" as a2
database "Database" as db

a1 -> user: branchList
activate user

user -> a2: setDefaultBranch
activate a2

a2 -> db: saveDefaultBranch
activate db

db- ->a2
deactivate db
a2- -> user
deactivate a2
deactivate user

@enduml

PlantUML version 1.2021.00(Sun Jan 10 17:25:05 ICT 2021)
(GPL source distribution)
Java Runtime: Java(TM) SE Runtime Environment
JVM: Java HotSpot(TM) 64-Bit Server VM
Default Encoding: Cp1252
Language: en
Country: ID
--></g></svg>