<?xml version="1.0" encoding="UTF-8" standalone="no"?><svg xmlns="http://www.w3.org/2000/svg" xmlns:xlink="http://www.w3.org/1999/xlink" contentScriptType="application/ecmascript" contentStyleType="text/css" height="407px" preserveAspectRatio="none" style="width:283px;height:407px;" version="1.1" viewBox="0 0 283 407" width="283px" zoomAndPan="magnify"><defs><filter height="300%" id="fgq6fwwk52pcp" width="300%" x="-1" y="-1"><feGaussianBlur result="blurOut" stdDeviation="2.0"/><feColorMatrix in="blurOut" result="blurOut2" type="matrix" values="0 0 0 0 0 0 0 0 0 0 0 0 0 0 0 0 0 0 .4 0"/><feOffset dx="4.0" dy="4.0" in="blurOut2" result="blurOut3"/><feBlend in="SourceGraphic" in2="blurOut3" mode="normal"/></filter></defs><g><rect fill="#FFFFFF" filter="url(#fgq6fwwk52pcp)" height="190.2422" style="stroke:#A80036;stroke-width:1.0;" width="10" x="173.5" y="121.9609"/><rect fill="#FFFFFF" filter="url(#fgq6fwwk52pcp)" height="28" style="stroke:#A80036;stroke-width:1.0;" width="10" x="178.5" y="160.3125"/><rect fill="#FFFFFF" filter="url(#fgq6fwwk52pcp)" height="94.8906" style="stroke:#000000;stroke-width:2.0;" width="242" x="10" y="210.3125"/><rect fill="#FFFFFF" height="46.1875" style="stroke:none;stroke-width:1.0;" width="242" x="10" y="259.0156"/><line style="stroke:#A80036;stroke-width:1.0;stroke-dasharray:5.0,5.0;" x1="37" x2="37" y1="89.6094" y2="322.2031"/><line style="stroke:#A80036;stroke-width:1.0;stroke-dasharray:5.0,5.0;" x1="178" x2="178" y1="89.6094" y2="322.2031"/><text fill="#000000" font-family="sans-serif" font-size="14" lengthAdjust="spacing" textLength="29" x="20" y="86.5332">User</text><ellipse cx="37.5" cy="15" fill="#FEFECE" filter="url(#fgq6fwwk52pcp)" rx="8" ry="8" style="stroke:#A80036;stroke-width:2.0;"/><path d="M37.5,23 L37.5,50 M24.5,31 L50.5,31 M37.5,50 L24.5,65 M37.5,50 L50.5,65 " fill="none" filter="url(#fgq6fwwk52pcp)" style="stroke:#A80036;stroke-width:2.0;"/><text fill="#000000" font-family="sans-serif" font-size="14" lengthAdjust="spacing" textLength="29" x="20" y="335.7363">User</text><ellipse cx="37.5" cy="348.8125" fill="#FEFECE" filter="url(#fgq6fwwk52pcp)" rx="8" ry="8" style="stroke:#A80036;stroke-width:2.0;"/><path d="M37.5,356.8125 L37.5,383.8125 M24.5,364.8125 L50.5,364.8125 M37.5,383.8125 L24.5,398.8125 M37.5,383.8125 L50.5,398.8125 " fill="none" filter="url(#fgq6fwwk52pcp)" style="stroke:#A80036;stroke-width:2.0;"/><rect fill="#FEFECE" filter="url(#fgq6fwwk52pcp)" height="31.6094" style="stroke:#A80036;stroke-width:1.5;" width="123" x="115" y="53"/><text fill="#000000" font-family="sans-serif" font-size="14" lengthAdjust="spacing" textLength="109" x="122" y="74.5332">DirectoryExplorer</text><rect fill="#FEFECE" filter="url(#fgq6fwwk52pcp)" height="31.6094" style="stroke:#A80036;stroke-width:1.5;" width="123" x="115" y="321.2031"/><text fill="#000000" font-family="sans-serif" font-size="14" lengthAdjust="spacing" textLength="109" x="122" y="342.7363">DirectoryExplorer</text><rect fill="#FFFFFF" filter="url(#fgq6fwwk52pcp)" height="190.2422" style="stroke:#A80036;stroke-width:1.0;" width="10" x="173.5" y="121.9609"/><rect fill="#FFFFFF" filter="url(#fgq6fwwk52pcp)" height="28" style="stroke:#A80036;stroke-width:1.0;" width="10" x="178.5" y="160.3125"/><polygon fill="#A80036" points="161.5,117.9609,171.5,121.9609,161.5,125.9609,165.5,121.9609" style="stroke:#A80036;stroke-width:1.0;"/><line style="stroke:#A80036;stroke-width:1.0;" x1="37.5" x2="167.5" y1="121.9609" y2="121.9609"/><text fill="#000000" font-family="sans-serif" font-size="13" lengthAdjust="spacing" textLength="70" x="44.5" y="117.1045">setDirectory</text><line style="stroke:#A80036;stroke-width:1.0;" x1="188.5" x2="230.5" y1="152.3125" y2="152.3125"/><line style="stroke:#A80036;stroke-width:1.0;" x1="230.5" x2="230.5" y1="152.3125" y2="165.3125"/><line style="stroke:#A80036;stroke-width:1.0;" x1="189.5" x2="230.5" y1="165.3125" y2="165.3125"/><polygon fill="#A80036" points="199.5,161.3125,189.5,165.3125,199.5,169.3125,195.5,165.3125" style="stroke:#A80036;stroke-width:1.0;"/><text fill="#000000" font-family="sans-serif" font-size="13" lengthAdjust="spacing" textLength="81" x="195.5" y="147.4561">verifyDirectory</text><path d="M10,210.3125 L71,210.3125 L71,218.3125 L61,228.3125 L10,228.3125 L10,210.3125 " fill="#EEEEEE" style="stroke:#000000;stroke-width:1.0;"/><rect fill="none" height="94.8906" style="stroke:#000000;stroke-width:2.0;" width="242" x="10" y="210.3125"/><text fill="#000000" font-family="sans-serif" font-size="13" font-weight="bold" lengthAdjust="spacing" textLength="16" x="25" y="224.8076">alt</text><text fill="#000000" font-family="sans-serif" font-size="11" font-weight="bold" lengthAdjust="spacing" textLength="86" x="86" y="223.7314">[valid directory]</text><polygon fill="#A80036" points="48.5,247.0156,38.5,251.0156,48.5,255.0156,44.5,251.0156" style="stroke:#A80036;stroke-width:1.0;"/><line style="stroke:#A80036;stroke-width:1.0;stroke-dasharray:2.0,2.0;" x1="42.5" x2="172.5" y1="251.0156" y2="251.0156"/><text fill="#000000" font-family="sans-serif" font-size="13" lengthAdjust="spacing" textLength="111" x="54.5" y="246.1592">Directory Accepted</text><line style="stroke:#000000;stroke-width:1.0;stroke-dasharray:2.0,2.0;" x1="10" x2="252" y1="260.0156" y2="260.0156"/><text fill="#000000" font-family="sans-serif" font-size="11" font-weight="bold" lengthAdjust="spacing" textLength="96" x="15" y="271.4346">[invalid directory]</text><polygon fill="#A80036" points="48.5,293.2031,38.5,297.2031,48.5,301.2031,44.5,297.2031" style="stroke:#A80036;stroke-width:1.0;"/><line style="stroke:#A80036;stroke-width:1.0;stroke-dasharray:2.0,2.0;" x1="42.5" x2="172.5" y1="297.2031" y2="297.2031"/><text fill="#000000" font-family="sans-serif" font-size="13" lengthAdjust="spacing" textLength="112" x="54.5" y="292.3467">Invalid Git Directory</text><!--MD5=[035dd578a8d1d1fe861b7c362024441a]
@startuml sequence_diagram1
actor User as user
participant "DirectoryExplorer" as a1

user -> a1: setDirectory
activate a1

a1 -> a1: verifyDirectory
activate a1
deactivate a1

alt valid directory
    a1 - -> user: Directory Accepted
else invalid directory
    a1 - -> user: Invalid Git Directory
end
deactivate a1

@enduml

PlantUML version 1.2021.00(Sun Jan 10 17:25:05 ICT 2021)
(GPL source distribution)
Java Runtime: Java(TM) SE Runtime Environment
JVM: Java HotSpot(TM) 64-Bit Server VM
Default Encoding: Cp1252
Language: en
Country: ID
--></g></svg>