<?xml version="1.0" encoding="UTF-8" standalone="no"?><svg xmlns="http://www.w3.org/2000/svg" xmlns:xlink="http://www.w3.org/1999/xlink" contentScriptType="application/ecmascript" contentStyleType="text/css" height="283px" preserveAspectRatio="none" style="width:252px;height:283px;" version="1.1" viewBox="0 0 252 283" width="252px" zoomAndPan="magnify"><defs><filter height="300%" id="fauxj7ovl20f9" width="300%" x="-1" y="-1"><feGaussianBlur result="blurOut" stdDeviation="2.0"/><feColorMatrix in="blurOut" result="blurOut2" type="matrix" values="0 0 0 0 0 0 0 0 0 0 0 0 0 0 0 0 0 0 .4 0"/><feOffset dx="4.0" dy="4.0" in="blurOut2" result="blurOut3"/><feBlend in="SourceGraphic" in2="blurOut3" mode="normal"/></filter></defs><g><rect fill="#FFFFFF" filter="url(#fauxj7ovl20f9)" height="58.3516" style="stroke:#383838;stroke-width:1.0;" width="10" x="113.5" y="121.9609"/><rect fill="#FFFFFF" filter="url(#fauxj7ovl20f9)" height="14" style="stroke:#383838;stroke-width:1.0;" width="10" x="212.5" y="152.3125"/><line style="stroke:#383838;stroke-width:1.0;stroke-dasharray:5.0,5.0;" x1="22" x2="22" y1="89.6094" y2="198.3125"/><line style="stroke:#383838;stroke-width:1.0;stroke-dasharray:5.0,5.0;" x1="118" x2="118" y1="89.6094" y2="198.3125"/><line style="stroke:#383838;stroke-width:1.0;stroke-dasharray:5.0,5.0;" x1="217" x2="217" y1="89.6094" y2="198.3125"/><text fill="#000000" font-family="sans-serif" font-size="14" lengthAdjust="spacing" textLength="29" x="5" y="86.5332">User</text><ellipse cx="22.5" cy="15" fill="#F8F8F8" filter="url(#fauxj7ovl20f9)" rx="8" ry="8" style="stroke:#383838;stroke-width:2.0;"/><path d="M22.5,23 L22.5,50 M9.5,31 L35.5,31 M22.5,50 L9.5,65 M22.5,50 L35.5,65 " fill="none" filter="url(#fauxj7ovl20f9)" style="stroke:#383838;stroke-width:2.0;"/><text fill="#000000" font-family="sans-serif" font-size="14" lengthAdjust="spacing" textLength="29" x="5" y="211.8457">User</text><ellipse cx="22.5" cy="224.9219" fill="#F8F8F8" filter="url(#fauxj7ovl20f9)" rx="8" ry="8" style="stroke:#383838;stroke-width:2.0;"/><path d="M22.5,232.9219 L22.5,259.9219 M9.5,240.9219 L35.5,240.9219 M22.5,259.9219 L9.5,274.9219 M22.5,259.9219 L35.5,274.9219 " fill="none" filter="url(#fauxj7ovl20f9)" style="stroke:#383838;stroke-width:2.0;"/><rect fill="#F8F8F8" filter="url(#fauxj7ovl20f9)" height="31.6094" style="stroke:#383838;stroke-width:1.5;" width="107" x="63" y="53"/><text fill="#000000" font-family="sans-serif" font-size="14" lengthAdjust="spacing" textLength="93" x="70" y="74.5332">TaskController</text><rect fill="#F8F8F8" filter="url(#fauxj7ovl20f9)" height="31.6094" style="stroke:#383838;stroke-width:1.5;" width="107" x="63" y="197.3125"/><text fill="#000000" font-family="sans-serif" font-size="14" lengthAdjust="spacing" textLength="93" x="70" y="218.8457">TaskController</text><text fill="#000000" font-family="sans-serif" font-size="14" lengthAdjust="spacing" textLength="61" x="184" y="86.5332">Database</text><path d="M199.5,36 C199.5,26 217.5,26 217.5,26 C217.5,26 235.5,26 235.5,36 L235.5,62 C235.5,72 217.5,72 217.5,72 C217.5,72 199.5,72 199.5,62 L199.5,36 " fill="#F8F8F8" filter="url(#fauxj7ovl20f9)" style="stroke:#000000;stroke-width:1.5;"/><path d="M199.5,36 C199.5,46 217.5,46 217.5,46 C217.5,46 235.5,46 235.5,36 " fill="none" style="stroke:#000000;stroke-width:1.5;"/><text fill="#000000" font-family="sans-serif" font-size="14" lengthAdjust="spacing" textLength="61" x="184" y="211.8457">Database</text><path d="M199.5,224.9219 C199.5,214.9219 217.5,214.9219 217.5,214.9219 C217.5,214.9219 235.5,214.9219 235.5,224.9219 L235.5,250.9219 C235.5,260.9219 217.5,260.9219 217.5,260.9219 C217.5,260.9219 199.5,260.9219 199.5,250.9219 L199.5,224.9219 " fill="#F8F8F8" filter="url(#fauxj7ovl20f9)" style="stroke:#000000;stroke-width:1.5;"/><path d="M199.5,224.9219 C199.5,234.9219 217.5,234.9219 217.5,234.9219 C217.5,234.9219 235.5,234.9219 235.5,224.9219 " fill="none" style="stroke:#000000;stroke-width:1.5;"/><rect fill="#FFFFFF" filter="url(#fauxj7ovl20f9)" height="58.3516" style="stroke:#383838;stroke-width:1.0;" width="10" x="113.5" y="121.9609"/><rect fill="#FFFFFF" filter="url(#fauxj7ovl20f9)" height="14" style="stroke:#383838;stroke-width:1.0;" width="10" x="212.5" y="152.3125"/><polygon fill="#383838" points="101.5,117.9609,111.5,121.9609,101.5,125.9609,105.5,121.9609" style="stroke:#383838;stroke-width:1.0;"/><line style="stroke:#383838;stroke-width:1.0;" x1="22.5" x2="107.5" y1="121.9609" y2="121.9609"/><text fill="#000000" font-family="sans-serif" font-size="13" lengthAdjust="spacing" textLength="72" x="29.5" y="117.1045">viewTimeline</text><polygon fill="#383838" points="200.5,148.3125,210.5,152.3125,200.5,156.3125,204.5,152.3125" style="stroke:#383838;stroke-width:1.0;"/><line style="stroke:#383838;stroke-width:1.0;" x1="123.5" x2="206.5" y1="152.3125" y2="152.3125"/><text fill="#000000" font-family="sans-serif" font-size="13" lengthAdjust="spacing" textLength="46" x="130.5" y="147.4561">getTask</text><polygon fill="#383838" points="134.5,162.3125,124.5,166.3125,134.5,170.3125,130.5,166.3125" style="stroke:#383838;stroke-width:1.0;"/><line style="stroke:#383838;stroke-width:1.0;stroke-dasharray:2.0,2.0;" x1="128.5" x2="216.5" y1="166.3125" y2="166.3125"/><polygon fill="#383838" points="33.5,176.3125,23.5,180.3125,33.5,184.3125,29.5,180.3125" style="stroke:#383838;stroke-width:1.0;"/><line style="stroke:#383838;stroke-width:1.0;stroke-dasharray:2.0,2.0;" x1="27.5" x2="117.5" y1="180.3125" y2="180.3125"/><!--MD5=[6c03dcd62b888f3168c08f18a7e6b6bf]
@startuml sequence_diagram4
skinparam monochrome true
actor User as user
participant "TaskController" as a1
database "Database" as db

user -> a1: viewTimeline
activate a1

a1 -> db: getTask
activate db

db - -> a1
deactivate db

a1 - -> user
deactivate a1

@enduml

PlantUML version 1.2021.00(Sun Jan 10 17:25:05 ICT 2021)
(GPL source distribution)
Java Runtime: Java(TM) SE Runtime Environment
JVM: Java HotSpot(TM) 64-Bit Server VM
Default Encoding: Cp1252
Language: en
Country: ID
--></g></svg>