<?xml version="1.0" encoding="UTF-8" standalone="no"?><svg xmlns="http://www.w3.org/2000/svg" xmlns:xlink="http://www.w3.org/1999/xlink" contentScriptType="application/ecmascript" contentStyleType="text/css" height="371px" preserveAspectRatio="none" style="width:457px;height:371px;" version="1.1" viewBox="0 0 457 371" width="457px" zoomAndPan="magnify"><defs><filter height="300%" id="f1wgpe6jz697yr" width="300%" x="-1" y="-1"><feGaussianBlur result="blurOut" stdDeviation="2.0"/><feColorMatrix in="blurOut" result="blurOut2" type="matrix" values="0 0 0 0 0 0 0 0 0 0 0 0 0 0 0 0 0 0 .4 0"/><feOffset dx="4.0" dy="4.0" in="blurOut2" result="blurOut3"/><feBlend in="SourceGraphic" in2="blurOut3" mode="normal"/></filter></defs><g><rect fill="#FFFFFF" filter="url(#f1wgpe6jz697yr)" height="146.0547" style="stroke:#383838;stroke-width:1.0;" width="10" x="169.5" y="121.9609"/><rect fill="#FFFFFF" filter="url(#f1wgpe6jz697yr)" height="93.7031" style="stroke:#383838;stroke-width:1.0;" width="10" x="174.5" y="160.3125"/><rect fill="#FFFFFF" filter="url(#f1wgpe6jz697yr)" height="58.3516" style="stroke:#383838;stroke-width:1.0;" width="10" x="319" y="195.6641"/><rect fill="#FFFFFF" filter="url(#f1wgpe6jz697yr)" height="14" style="stroke:#383838;stroke-width:1.0;" width="10" x="418" y="226.0156"/><line style="stroke:#383838;stroke-width:1.0;stroke-dasharray:5.0,5.0;" x1="22" x2="22" y1="89.6094" y2="286.0156"/><line style="stroke:#383838;stroke-width:1.0;stroke-dasharray:5.0,5.0;" x1="174.5" x2="174.5" y1="89.6094" y2="286.0156"/><line style="stroke:#383838;stroke-width:1.0;stroke-dasharray:5.0,5.0;" x1="323.5" x2="323.5" y1="89.6094" y2="286.0156"/><line style="stroke:#383838;stroke-width:1.0;stroke-dasharray:5.0,5.0;" x1="422.5" x2="422.5" y1="89.6094" y2="286.0156"/><text fill="#000000" font-family="sans-serif" font-size="14" lengthAdjust="spacing" textLength="29" x="5" y="86.5332">User</text><ellipse cx="22.5" cy="15" fill="#F8F8F8" filter="url(#f1wgpe6jz697yr)" rx="8" ry="8" style="stroke:#383838;stroke-width:2.0;"/><path d="M22.5,23 L22.5,50 M9.5,31 L35.5,31 M22.5,50 L9.5,65 M22.5,50 L35.5,65 " fill="none" filter="url(#f1wgpe6jz697yr)" style="stroke:#383838;stroke-width:2.0;"/><text fill="#000000" font-family="sans-serif" font-size="14" lengthAdjust="spacing" textLength="29" x="5" y="299.5488">User</text><ellipse cx="22.5" cy="312.625" fill="#F8F8F8" filter="url(#f1wgpe6jz697yr)" rx="8" ry="8" style="stroke:#383838;stroke-width:2.0;"/><path d="M22.5,320.625 L22.5,347.625 M9.5,328.625 L35.5,328.625 M22.5,347.625 L9.5,362.625 M22.5,347.625 L35.5,362.625 " fill="none" filter="url(#f1wgpe6jz697yr)" style="stroke:#383838;stroke-width:2.0;"/><rect fill="#F8F8F8" filter="url(#f1wgpe6jz697yr)" height="31.6094" style="stroke:#383838;stroke-width:1.5;" width="164" x="90.5" y="53"/><text fill="#000000" font-family="sans-serif" font-size="14" lengthAdjust="spacing" textLength="150" x="97.5" y="74.5332">GitOperationsController</text><rect fill="#F8F8F8" filter="url(#f1wgpe6jz697yr)" height="31.6094" style="stroke:#383838;stroke-width:1.5;" width="164" x="90.5" y="285.0156"/><text fill="#000000" font-family="sans-serif" font-size="14" lengthAdjust="spacing" textLength="150" x="97.5" y="306.5488">GitOperationsController</text><rect fill="#F8F8F8" filter="url(#f1wgpe6jz697yr)" height="31.6094" style="stroke:#383838;stroke-width:1.5;" width="107" x="268.5" y="53"/><text fill="#000000" font-family="sans-serif" font-size="14" lengthAdjust="spacing" textLength="93" x="275.5" y="74.5332">TaskController</text><rect fill="#F8F8F8" filter="url(#f1wgpe6jz697yr)" height="31.6094" style="stroke:#383838;stroke-width:1.5;" width="107" x="268.5" y="285.0156"/><text fill="#000000" font-family="sans-serif" font-size="14" lengthAdjust="spacing" textLength="93" x="275.5" y="306.5488">TaskController</text><text fill="#000000" font-family="sans-serif" font-size="14" lengthAdjust="spacing" textLength="61" x="389.5" y="86.5332">Database</text><path d="M405,36 C405,26 423,26 423,26 C423,26 441,26 441,36 L441,62 C441,72 423,72 423,72 C423,72 405,72 405,62 L405,36 " fill="#F8F8F8" filter="url(#f1wgpe6jz697yr)" style="stroke:#000000;stroke-width:1.5;"/><path d="M405,36 C405,46 423,46 423,46 C423,46 441,46 441,36 " fill="none" style="stroke:#000000;stroke-width:1.5;"/><text fill="#000000" font-family="sans-serif" font-size="14" lengthAdjust="spacing" textLength="61" x="389.5" y="299.5488">Database</text><path d="M405,312.625 C405,302.625 423,302.625 423,302.625 C423,302.625 441,302.625 441,312.625 L441,338.625 C441,348.625 423,348.625 423,348.625 C423,348.625 405,348.625 405,338.625 L405,312.625 " fill="#F8F8F8" filter="url(#f1wgpe6jz697yr)" style="stroke:#000000;stroke-width:1.5;"/><path d="M405,312.625 C405,322.625 423,322.625 423,322.625 C423,322.625 441,322.625 441,312.625 " fill="none" style="stroke:#000000;stroke-width:1.5;"/><rect fill="#FFFFFF" filter="url(#f1wgpe6jz697yr)" height="146.0547" style="stroke:#383838;stroke-width:1.0;" width="10" x="169.5" y="121.9609"/><rect fill="#FFFFFF" filter="url(#f1wgpe6jz697yr)" height="93.7031" style="stroke:#383838;stroke-width:1.0;" width="10" x="174.5" y="160.3125"/><rect fill="#FFFFFF" filter="url(#f1wgpe6jz697yr)" height="58.3516" style="stroke:#383838;stroke-width:1.0;" width="10" x="319" y="195.6641"/><rect fill="#FFFFFF" filter="url(#f1wgpe6jz697yr)" height="14" style="stroke:#383838;stroke-width:1.0;" width="10" x="418" y="226.0156"/><polygon fill="#383838" points="157.5,117.9609,167.5,121.9609,157.5,125.9609,161.5,121.9609" style="stroke:#383838;stroke-width:1.0;"/><line style="stroke:#383838;stroke-width:1.0;" x1="22.5" x2="163.5" y1="121.9609" y2="121.9609"/><text fill="#000000" font-family="sans-serif" font-size="13" lengthAdjust="spacing" textLength="128" x="29.5" y="117.1045">viewProjectInformation</text><line style="stroke:#383838;stroke-width:1.0;" x1="179.5" x2="226.5" y1="147.3125" y2="147.3125"/><line style="stroke:#383838;stroke-width:1.0;" x1="226.5" x2="226.5" y1="147.3125" y2="160.3125"/><line style="stroke:#383838;stroke-width:1.0;" x1="185.5" x2="226.5" y1="160.3125" y2="160.3125"/><polygon fill="#383838" points="195.5,156.3125,185.5,160.3125,195.5,164.3125,191.5,160.3125" style="stroke:#383838;stroke-width:1.0;"/><text fill="#000000" font-family="sans-serif" font-size="13" lengthAdjust="spacing" textLength="122" x="191.5" y="142.4561">getProjectInformation</text><polygon fill="#383838" points="307,191.6641,317,195.6641,307,199.6641,311,195.6641" style="stroke:#383838;stroke-width:1.0;"/><line style="stroke:#383838;stroke-width:1.0;" x1="184.5" x2="313" y1="195.6641" y2="195.6641"/><text fill="#000000" font-family="sans-serif" font-size="13" lengthAdjust="spacing" textLength="94" x="191.5" y="190.8076">getProjectTasks</text><polygon fill="#383838" points="406,222.0156,416,226.0156,406,230.0156,410,226.0156" style="stroke:#383838;stroke-width:1.0;"/><line style="stroke:#383838;stroke-width:1.0;" x1="329" x2="412" y1="226.0156" y2="226.0156"/><text fill="#000000" font-family="sans-serif" font-size="13" lengthAdjust="spacing" textLength="53" x="336" y="221.1592">getTasks</text><polygon fill="#383838" points="340,236.0156,330,240.0156,340,244.0156,336,240.0156" style="stroke:#383838;stroke-width:1.0;"/><line style="stroke:#383838;stroke-width:1.0;stroke-dasharray:2.0,2.0;" x1="334" x2="422" y1="240.0156" y2="240.0156"/><polygon fill="#383838" points="190.5,250.0156,180.5,254.0156,190.5,258.0156,186.5,254.0156" style="stroke:#383838;stroke-width:1.0;"/><line style="stroke:#383838;stroke-width:1.0;stroke-dasharray:2.0,2.0;" x1="184.5" x2="323" y1="254.0156" y2="254.0156"/><polygon fill="#383838" points="33.5,264.0156,23.5,268.0156,33.5,272.0156,29.5,268.0156" style="stroke:#383838;stroke-width:1.0;"/><line style="stroke:#383838;stroke-width:1.0;stroke-dasharray:2.0,2.0;" x1="27.5" x2="173.5" y1="268.0156" y2="268.0156"/><!--MD5=[af962a7d335fb1cfe94a59dd58f71f14]
@startuml sequence_diagram5
skinparam monochrome true
actor User as user
participant "GitOperationsController" as a1
participant "TaskController" as a2
database "Database" as db

user -> a1: viewProjectInformation
activate a1

a1 -> a1: getProjectInformation
activate a1

a1 -> a2: getProjectTasks
activate a2

a2 -> db: getTasks
activate db

db - -> a2
deactivate db
a2 - -> a1
deactivate a2
deactivate a1

a1 - -> user
deactivate a1

@enduml

PlantUML version 1.2021.00(Sun Jan 10 17:25:05 ICT 2021)
(GPL source distribution)
Java Runtime: Java(TM) SE Runtime Environment
JVM: Java HotSpot(TM) 64-Bit Server VM
Default Encoding: Cp1252
Language: en
Country: ID
--></g></svg>