<?xml version="1.0" encoding="UTF-8" standalone="no"?><svg xmlns="http://www.w3.org/2000/svg" xmlns:xlink="http://www.w3.org/1999/xlink" contentScriptType="application/ecmascript" contentStyleType="text/css" height="445px" preserveAspectRatio="none" style="width:696px;height:445px;" version="1.1" viewBox="0 0 696 445" width="696px" zoomAndPan="magnify"><defs><filter height="300%" id="f107ywj81gigwz" width="300%" x="-1" y="-1"><feGaussianBlur result="blurOut" stdDeviation="2.0"/><feColorMatrix in="blurOut" result="blurOut2" type="matrix" values="0 0 0 0 0 0 0 0 0 0 0 0 0 0 0 0 0 0 .4 0"/><feOffset dx="4.0" dy="4.0" in="blurOut2" result="blurOut3"/><feBlend in="SourceGraphic" in2="blurOut3" mode="normal"/></filter></defs><g><!--MD5=[3910779289e187ef320344a658a6d267]
cluster Essence Project--><rect fill="#FFFFFF" filter="url(#f107ywj81gigwz)" height="426" style="stroke:#000000;stroke-width:1.5;" width="566" x="118" y="7"/><text fill="#000000" font-family="sans-serif" font-size="14" font-weight="bold" lengthAdjust="spacing" textLength="114" x="344" y="23.5332">Essence Project</text><ellipse cx="244.1904" cy="64.9381" fill="#FEFECE" filter="url(#f107ywj81gigwz)" rx="95.1904" ry="21.4381" style="stroke:#A80036;stroke-width:1.5;"/><text fill="#000000" font-family="sans-serif" font-size="14" lengthAdjust="spacing" textLength="150" x="169.1904" y="68.6666">Atur direktori proyek Git</text><ellipse cx="244.1309" cy="142.8262" fill="#FEFECE" filter="url(#f107ywj81gigwz)" rx="92.1309" ry="20.8262" style="stroke:#A80036;stroke-width:1.5;"/><text fill="#000000" font-family="sans-serif" font-size="14" lengthAdjust="spacing" textLength="143" x="172.6309" y="146.5547">Atur branch proyek Git</text><ellipse cx="244.1002" cy="217.02" fill="#FEFECE" filter="url(#f107ywj81gigwz)" rx="75.6002" ry="17.52" style="stroke:#A80036;stroke-width:1.5;"/><text fill="#000000" font-family="sans-serif" font-size="14" lengthAdjust="spacing" textLength="103" x="189.6002" y="221.5366">Atur task proyek</text><ellipse cx="568.613" cy="216.8226" fill="#FEFECE" filter="url(#f107ywj81gigwz)" rx="99.613" ry="22.3226" style="stroke:#A80036;stroke-width:1.5;"/><text fill="#000000" font-family="sans-serif" font-size="14" lengthAdjust="spacing" textLength="160" x="488.613" y="220.5511">Lihat timeline task proyek</text><ellipse cx="244.136" cy="297.9881" fill="#FEFECE" filter="url(#f107ywj81gigwz)" rx="110.136" ry="27.9881" style="stroke:#A80036;stroke-width:1.5;"/><text fill="#000000" font-family="sans-serif" font-size="14" lengthAdjust="spacing" textLength="139" x="171.636" y="293.7">Lihat informasi proyek</text><text fill="#000000" font-family="sans-serif" font-size="14" lengthAdjust="spacing" textLength="134" x="174.136" y="311.3094">berdasarkan data Git</text><ellipse cx="244.0807" cy="388.9034" fill="#FEFECE" filter="url(#f107ywj81gigwz)" rx="100.5807" ry="27.9034" style="stroke:#A80036;stroke-width:1.5;"/><text fill="#000000" font-family="sans-serif" font-size="14" lengthAdjust="spacing" textLength="78" x="205.0807" y="383.8272">Atur periode</text><text fill="#000000" font-family="sans-serif" font-size="14" lengthAdjust="spacing" textLength="126" x="181.0807" y="401.4366">pembaruan data Git</text><!--MD5=[7d46d6cd919e02e6168a09ad91eae8b4]
entity u--><ellipse cx="38.5" cy="185" fill="#FEFECE" filter="url(#f107ywj81gigwz)" rx="8" ry="8" style="stroke:#A80036;stroke-width:1.5;"/><path d="M38.5,193 L38.5,220 M25.5,201 L51.5,201 M38.5,220 L25.5,235 M38.5,220 L51.5,235 " fill="none" filter="url(#f107ywj81gigwz)" style="stroke:#A80036;stroke-width:1.5;"/><text fill="#000000" font-family="sans-serif" font-size="14" lengthAdjust="spacing" textLength="65" x="6" y="255.0332">Pengguna</text><!--MD5=[b2b650fb067a81fe93d0d08ba9a3d4fd]
link u to uc1--><path d="M56.39,175.31 C68.11,151.25 85.96,122.24 110,104 C124.89,92.7 143,84.67 160.99,78.96 " fill="none" id="u-to-uc1" style="stroke:#A80036;stroke-width:1.0;"/><polygon fill="#A80036" points="166.06,77.41,156.2841,76.2131,161.278,78.8704,158.6207,83.8642,166.06,77.41" style="stroke:#A80036;stroke-width:1.0;"/><!--MD5=[d79c1cbf5a4c225cb64967d43e965430]
link u to uc2--><path d="M71.25,199.76 C83.19,193.67 97.02,187.08 110,182 C131.35,173.64 155.24,166.1 176.81,159.93 " fill="none" id="u-to-uc2" style="stroke:#A80036;stroke-width:1.0;"/><polygon fill="#A80036" points="181.66,158.56,171.9112,157.1595,176.8486,159.9204,174.0878,164.8578,181.66,158.56" style="stroke:#A80036;stroke-width:1.0;"/><!--MD5=[470bbe7e094fad248269c0eb2aaddab2]
link u to uc3--><path d="M71.3,217 C95.91,217 131.12,217 163.25,217 " fill="none" id="u-to-uc3" style="stroke:#A80036;stroke-width:1.0;"/><polygon fill="#A80036" points="168.38,217,159.38,213,163.38,217,159.38,221,168.38,217" style="stroke:#A80036;stroke-width:1.0;"/><!--MD5=[bf521447fc5107b7434b2d0a2b0c06b1]
link u to uc5--><path d="M71.04,233.73 C83.07,239.83 97.02,246.56 110,252 C129.11,260.01 150.16,267.76 169.76,274.55 " fill="none" id="u-to-uc5" style="stroke:#A80036;stroke-width:1.0;"/><polygon fill="#A80036" points="174.71,276.25,167.5031,269.5373,169.9825,274.6218,164.898,277.1012,174.71,276.25" style="stroke:#A80036;stroke-width:1.0;"/><!--MD5=[1f43085bf108ddf1a59ea895906eb4a1]
reverse link uc3 to uc4--><path d="M325.05,217 C368.6,217 422.83,217 468.96,217 " fill="none" id="uc3-backto-uc4" style="stroke:#A80036;stroke-width:1.0;stroke-dasharray:7.0,7.0;"/><polygon fill="#A80036" points="319.8,217,328.8,221,324.8,217,328.8,213,319.8,217" style="stroke:#A80036;stroke-width:1.0;"/><text fill="#000000" font-family="sans-serif" font-size="13" lengthAdjust="spacing" textLength="53" x="385" y="213.4951">«extend»</text><!--MD5=[2f61573850970c08a8fdaadcf5f518e1]
link u to uc6--><path d="M53.84,258.78 C65.19,286.17 83.57,320.88 110,343 C124.13,354.82 141.48,363.67 158.92,370.28 " fill="none" id="u-to-uc6" style="stroke:#A80036;stroke-width:1.0;"/><polygon fill="#A80036" points="163.84,372.08,156.7555,365.2382,159.1427,370.3667,154.0142,372.7539,163.84,372.08" style="stroke:#A80036;stroke-width:1.0;"/><!--MD5=[31efa708b07b60c3ad6b2bc343ab0973]
@startuml use_case
left to right direction
actor Pengguna as u
rectangle "Essence Project" {
    usecase "Atur direktori proyek Git" as uc1
    usecase "Atur branch proyek Git" as uc2
    usecase "Atur task proyek" as uc3
    usecase "Lihat timeline task proyek" as uc4
    usecase "Lihat informasi proyek\nberdasarkan data Git" as uc5
    usecase "Atur periode\npembaruan data Git" as uc6
} 
u - -> uc1
u - -> uc2
u - -> uc3
u - -> uc5
uc3 <.. uc4 : <<extend>>
u - -> uc6
@enduml

PlantUML version 1.2021.00(Sun Jan 10 17:25:05 ICT 2021)
(GPL source distribution)
Java Runtime: Java(TM) SE Runtime Environment
JVM: Java HotSpot(TM) 64-Bit Server VM
Default Encoding: Cp1252
Language: en
Country: ID
--></g></svg>